<svg xmlns="http://www.w3.org/2000/svg" xmlns:xlink="http://www.w3.org/1999/xlink" viewBox="0 0 226.14 129.44"><defs><clipPath id="clip-path" transform="translate(50.21 35.61)"><rect width="154.45" height="90.32" rx="9.1" style="fill:none"/></clipPath></defs><g id="Layer_2" data-name="Layer 2"><g id="Layer_1-2" data-name="Layer 1"><rect x="50.21" y="35.61" width="175.94" height="90.32" rx="9.1" style="fill:#221f1f"/><g style="clip-path:url(#clip-path)"><rect x="2.69" y="-49.05" width="35.96" height="156.3" transform="translate(79.37 30.05) rotate(49.15)" style="fill:#a60f2d"/></g><path d="M56.42,82.37s4-1.72,6.22-8.36a16.45,16.45,0,0,1,1.43,8.21c-1.78.4-7.65.15-7.65.15" transform="translate(50.21 35.61)" style="fill:#fff"/><path d="M78,44.36s2.45,13.36-6.23,13.82C63.4,58.61,59.45,46,59.45,46s2,24.61,13.77,23C86.44,67.19,78,44.36,78,44.36" transform="translate(50.21 35.61)" style="fill:#fff"/><path d="M14.23,79.19h0C24,77,31.53,65.53,33.73,60.94l1.4-2.9L36,61.15a33.68,33.68,0,0,1,1,8.12c0,.51,0,1,0,1.54,3.38.13,5.79-.56,7.29-2.11,2.15-2.23,2.79-6.44,2-12.88-.39-3.08-1.53-8-2.54-12.31-.52-2.21-1-4.31-1.3-5.79-1.89-9.46.46-15.33,2.75-18.59a15.35,15.35,0,0,1,1.18-1.46A45.38,45.38,0,0,0,27.94,29.35l4.12,4.78,1.69-1.58A27.45,27.45,0,0,1,34.2,44a47.81,47.81,0,0,0-4.73-6l1.12-1.88-3.72-4.32-.43-.49A40.93,40.93,0,0,0,20.39,42.7l3.24,3,1.89,1.71.63-1.82a14.34,14.34,0,0,1,.31,12.62,23.06,23.06,0,0,0-2.87-5.51l.91-3-4.83-4.36C14.65,61,8,66.06,8,66.06A104.47,104.47,0,0,0,19.24,63.4a33,33,0,0,1-5,15.79" transform="translate(50.21 35.61)" style="fill:#fff"/><path d="M87.42,22.66l-11.58.49a12.45,12.45,0,0,1-.62,4.05c1.08,4.73.33,7.29.33,7.29-1.94-4.51-3.41-5.76-3.41-5.76-10.64-4.72-16.62,6-16,12.85.52,5.67,2.58,13.18,4.18,25,1.35,9.92-3.67,14.21-9.45,15.2l-.38.07h-.09a20.57,20.57,0,0,1-3,.15h-.11L47,82c-.45,0-.89-.07-1.33-.12-4.5-.63-14.57-2.46-25-2.71,6.12-3.57,10.9-9.76,13.58-14.14a35.49,35.49,0,0,1,.28,4.33,24.76,24.76,0,0,1-.12,2.54l-.1,1.2,1.2.1c4.79.41,8.18-.5,10.4-2.79,2.72-2.82,3.55-7.53,2.63-14.84C48.15,52.32,47,47.35,46,43c-.5-2.2-1-4.28-1.28-5.71C43,28.62,45,23.38,47.05,20.51a12.48,12.48,0,0,1,6.18-4.7l.12,0,4-12.13h1.24L55.9,15.32c.61-.11,1.23-.21,1.87-.3L61.18,4.27h1.23L60.17,14.68c3.54-.46,7.37-.81,11.62-1.12a5,5,0,0,1,2.09,2.18L85,12.31l.41,1.2L74.78,17.64c.09.22.17.45.24.68l11.65-1.44.19,1.24-11.3,2.26c0,.21.07.42.11.64l11.76.37Zm-33.56,5.2a16.67,16.67,0,0,1,10-2.61c.95.07,1.75-.18.73-.71-2.79-1.47-9.3-1-11.6.6a7.37,7.37,0,0,0-3,7.09,13.76,13.76,0,0,1,3.8-4.37" transform="translate(50.21 35.61)" style="fill:#fff"/><path d="M99.55,18.55a5.85,5.85,0,0,1,2.09.32,5.49,5.49,0,0,1,1.58.92L102,21.2a3.9,3.9,0,0,0-1.11-.65,3.63,3.63,0,0,0-1.28-.22,2.77,2.77,0,0,0-1.52.43,3,3,0,0,0-1.1,1.4,6.58,6.58,0,0,0-.41,2.53,6.44,6.44,0,0,0,.4,2.5,2.86,2.86,0,0,0,1.08,1.4,2.79,2.79,0,0,0,1.56.45,3.35,3.35,0,0,0,1.54-.32,7.35,7.35,0,0,0,1.09-.72l1.1,1.4a5.61,5.61,0,0,1-1.56,1.05,6,6,0,0,1-5-.27,4.86,4.86,0,0,1-1.91-2.09,7.54,7.54,0,0,1-.69-3.4,7.25,7.25,0,0,1,.71-3.35,5,5,0,0,1,1.94-2.08A5.2,5.2,0,0,1,99.55,18.55Z" transform="translate(50.21 35.61)" style="fill:#fff"/><path d="M113.42,24.71A9.33,9.33,0,0,1,112.9,28a4.79,4.79,0,0,1-1.55,2.16,4,4,0,0,1-2.53.77,4.18,4.18,0,0,1-2.54-.75A4.55,4.55,0,0,1,104.74,28a9.2,9.2,0,0,1-.52-3.27,9.18,9.18,0,0,1,.52-3.24,4.77,4.77,0,0,1,1.54-2.16,4.06,4.06,0,0,1,2.54-.77,4.15,4.15,0,0,1,2.53.75,4.65,4.65,0,0,1,1.55,2.15A9.41,9.41,0,0,1,113.42,24.71Zm-2.41,0a8.18,8.18,0,0,0-.51-3.32,1.85,1.85,0,0,0-3.36,0,8.27,8.27,0,0,0-.51,3.33,7.92,7.92,0,0,0,.52,3.32,1.85,1.85,0,0,0,3.36,0A8.43,8.43,0,0,0,111,24.71Z" transform="translate(50.21 35.61)" style="fill:#fff"/><path d="M123.31,18.8v7.91a4.57,4.57,0,0,1-.49,2.15,3.46,3.46,0,0,1-1.43,1.48,4.6,4.6,0,0,1-2.32.54,4.72,4.72,0,0,1-2.33-.52,3.47,3.47,0,0,1-1.42-1.47,4.73,4.73,0,0,1-.48-2.18V18.8h2.35v7.25a4.81,4.81,0,0,0,.41,2.27,1.51,1.51,0,0,0,1.47.76,1.54,1.54,0,0,0,1.48-.76,4.94,4.94,0,0,0,.41-2.27V18.8Z" transform="translate(50.21 35.61)" style="fill:#fff"/><path d="M129.7,30.88A4.48,4.48,0,0,1,126,29.31a7.05,7.05,0,0,1-1.3-4.62,7.19,7.19,0,0,1,.72-3.38,5.12,5.12,0,0,1,1.94-2.07,5.2,5.2,0,0,1,2.64-.69,5.15,5.15,0,0,1,2.09.37,5.47,5.47,0,0,1,1.54,1l-1.27,1.31a4.37,4.37,0,0,0-1.07-.72,3,3,0,0,0-1.2-.23,2.7,2.7,0,0,0-1.49.43,2.91,2.91,0,0,0-1.07,1.4,7,7,0,0,0-.4,2.57,6.61,6.61,0,0,0,.65,3.41,2.17,2.17,0,0,0,1.95,1,3.49,3.49,0,0,0,.93-.11,3.85,3.85,0,0,0,.82-.31v-3h-1.78L129.49,24h4.25v5.79a8.73,8.73,0,0,1-1.84.82A7.13,7.13,0,0,1,129.7,30.88Z" transform="translate(50.21 35.61)" style="fill:#fff"/><path d="M103,47.24a3.31,3.31,0,0,1-.55,1.9,3.67,3.67,0,0,1-1.59,1.29,6.07,6.07,0,0,1-2.5.46,6.74,6.74,0,0,1-2.64-.46,5.74,5.74,0,0,1-1.85-1.17l1.23-1.38a4.71,4.71,0,0,0,1.44.9,4.61,4.61,0,0,0,1.79.32,2.78,2.78,0,0,0,1.59-.43,1.45,1.45,0,0,0,.65-1.28,1.48,1.48,0,0,0-.21-.81,1.79,1.79,0,0,0-.7-.61,9.14,9.14,0,0,0-1.39-.53A8,8,0,0,1,95.33,44,3,3,0,0,1,95,40.09,3.52,3.52,0,0,1,96.48,39a5.51,5.51,0,0,1,2.16-.4,6.54,6.54,0,0,1,2.31.38A5.53,5.53,0,0,1,102.71,40l-1.17,1.33a4.07,4.07,0,0,0-1.31-.77,4.44,4.44,0,0,0-1.43-.25,2.8,2.8,0,0,0-1.43.34,1.13,1.13,0,0,0-.56,1,1.07,1.07,0,0,0,.24.71,2.22,2.22,0,0,0,.8.56,15.58,15.58,0,0,0,1.58.56,8.7,8.7,0,0,1,1.84.76,3.44,3.44,0,0,1,1.24,1.15A3.39,3.39,0,0,1,103,47.24Z" transform="translate(50.21 35.61)" style="fill:#fff"/><path d="M110,40.65v10h-2.33v-10h-3.45V38.81h9.34l-.24,1.84Z" transform="translate(50.21 35.61)" style="fill:#fff"/><path d="M123.31,38.81v7.91a4.57,4.57,0,0,1-.49,2.15,3.52,3.52,0,0,1-1.43,1.48,4.6,4.6,0,0,1-2.32.54,4.72,4.72,0,0,1-2.33-.53,3.5,3.5,0,0,1-1.42-1.46,4.76,4.76,0,0,1-.48-2.18V38.81h2.35v7.25a4.84,4.84,0,0,0,.41,2.27,1.52,1.52,0,0,0,1.47.75,1.55,1.55,0,0,0,1.48-.75,5,5,0,0,0,.41-2.27V38.81Z" transform="translate(50.21 35.61)" style="fill:#fff"/><path d="M133.9,44.66a7.93,7.93,0,0,1-.48,3,4.39,4.39,0,0,1-1.28,1.82,4.79,4.79,0,0,1-1.8.91,8.12,8.12,0,0,1-2,.25h-3V38.81h2.82a10,10,0,0,1,2.14.23,5,5,0,0,1,1.86.86,4.21,4.21,0,0,1,1.31,1.78A7.6,7.6,0,0,1,133.9,44.66Zm-2.44,0a7.64,7.64,0,0,0-.25-2.12,3,3,0,0,0-.66-1.25,2.11,2.11,0,0,0-1-.58,3.66,3.66,0,0,0-1.1-.16h-.87V48.9h.88a3.19,3.19,0,0,0,1.47-.35,2.55,2.55,0,0,0,1.07-1.27A6.73,6.73,0,0,0,131.46,44.66Z" transform="translate(50.21 35.61)" style="fill:#fff"/><path d="M140.77,46.15v4.48h-2.35V46.17l-3.9-7.36h2.56l2.56,5.39,2.58-5.39h2.45Z" transform="translate(50.21 35.61)" style="fill:#fff"/><path d="M99.67,70.64l-3.48-9.82c0,.27.08.67.14,1.18s.1,1.08.15,1.72.06,1.28.06,1.94v5h-2V58.81h3l3.45,9.81c-.07-.44-.14-1.08-.23-1.93s-.12-1.8-.12-2.86v-5h2V70.64Z" transform="translate(50.21 35.61)" style="fill:#fff"/><path d="M107.82,60.54v3.24H112v1.7h-4.19v3.44h5.08v1.72h-7.43V58.81h7.37l-.24,1.73Z" transform="translate(50.21 35.61)" style="fill:#fff"/><path d="M120.22,60.65v10h-2.33v-10h-3.46V58.81h9.35l-.24,1.84Z" transform="translate(50.21 35.61)" style="fill:#fff"/><path d="M134.47,58.81l-1.53,11.83h-2.57l-1-8.62-1.1,8.62h-2.62L124.2,58.81h2.23l.7,9.7,1.13-8.33h2.2l1.07,8.33.87-9.7Z" transform="translate(50.21 35.61)" style="fill:#fff"/><path d="M144.19,64.72a9.1,9.1,0,0,1-.52,3.24,4.67,4.67,0,0,1-1.54,2.16,4.07,4.07,0,0,1-2.54.78,4.17,4.17,0,0,1-2.53-.76A4.51,4.51,0,0,1,135.52,68a9.29,9.29,0,0,1-.52-3.28,9.08,9.08,0,0,1,.52-3.23,4.68,4.68,0,0,1,1.54-2.17,4.58,4.58,0,0,1,5.07,0,4.55,4.55,0,0,1,1.54,2.14A9.18,9.18,0,0,1,144.19,64.72Zm-2.41,0a8.18,8.18,0,0,0-.51-3.32,1.84,1.84,0,0,0-3.36,0,8.39,8.39,0,0,0-.5,3.32,7.92,7.92,0,0,0,.52,3.32,1.84,1.84,0,0,0,3.35,0A8.21,8.21,0,0,0,141.78,64.72Z" transform="translate(50.21 35.61)" style="fill:#fff"/><path d="M154.18,62.31a3,3,0,0,1-.74,2.09,4.31,4.31,0,0,1-1.81,1.16l3.24,5.08h-2.68l-2.8-4.71h-1.08v4.71H146V58.81h3.48a6,6,0,0,1,3.53.87A3,3,0,0,1,154.18,62.31Zm-2.43,0a1.61,1.61,0,0,0-.55-1.37,2.7,2.7,0,0,0-1.68-.43h-1.21v3.76h1.29a2.41,2.41,0,0,0,1.59-.46A1.83,1.83,0,0,0,151.75,62.31Z" transform="translate(50.21 35.61)" style="fill:#fff"/><path d="M158.61,70.64h-2.34V58.81h2.34Zm.08-6.31,3.73-5.52h2.51l-3.79,5.35,4.12,6.48H162.5Z" transform="translate(50.21 35.61)" style="fill:#fff"/></g></g></svg>