<svg xmlns="http://www.w3.org/2000/svg" viewBox="0 0 71.27 71.27"><g id="Layer_2" data-name="Layer 2"><g id="Layer_1-2" data-name="Layer 1"><path d="M37.53,70.77a8.05,8.05,0,0,1-1.76-15.91v-12a10.67,10.67,0,0,1-4.37-1.82L15.81,56.69a8.08,8.08,0,1,1-2.21-2.77L28.92,38.61a10.49,10.49,0,0,1,0-12.24l-9.09-9.09a5.47,5.47,0,0,1-2.46.59,5.54,5.54,0,1,1,5.54-5.53,5.43,5.43,0,0,1-.59,2.45l9.08,9.09a10.49,10.49,0,0,1,12.24,0L55.46,12.06a8,8,0,0,1-.8-3.5,8.06,8.06,0,1,1,3,6.27L46.13,26.37a10.49,10.49,0,0,1,0,12.24l9.09,9.08a5.44,5.44,0,0,1,2.46-.59,5.54,5.54,0,1,1-5.54,5.54,5.47,5.47,0,0,1,.59-2.46l-9.08-9.09a10.67,10.67,0,0,1-4.37,1.82v12a8.05,8.05,0,0,1-1.75,15.91Z" style="fill:#221f1f"/><path d="M62.71,1a7.56,7.56,0,1,1-5.06,13.15L45.47,26.32a10,10,0,0,1,0,12.33l9.66,9.66a5.08,5.08,0,1,1-1.78,1.78l-9.66-9.66a9.93,9.93,0,0,1-4.91,2v12.8a7.56,7.56,0,1,1-2.51,0V42.47a9.93,9.93,0,0,1-4.91-2L15.2,56.59a7.64,7.64,0,1,1-1.58-2l16-16a10,10,0,0,1,0-12.33l-9.65-9.66a5.08,5.08,0,1,1,1.78-1.78l9.66,9.66a10,10,0,0,1,12.33,0L56.07,12.16A7.56,7.56,0,0,1,62.71,1m0-1a8.56,8.56,0,0,0-7.85,12L43.58,23.23a11,11,0,0,0-12.12,0l-8.54-8.55a5.75,5.75,0,0,0,.49-2.34,6,6,0,1,0-6,6,5.79,5.79,0,0,0,2.35-.49l8.55,8.54a11,11,0,0,0,0,12.13L13.55,53.26a8.5,8.5,0,1,0,2.86,3.54L31.46,41.74a11,11,0,0,0,3.81,1.58V54.47a8.56,8.56,0,1,0,4.51,0V43.32a11,11,0,0,0,3.81-1.58l8.54,8.55a5.79,5.79,0,0,0-.49,2.35,6,6,0,1,0,6-6,5.93,5.93,0,0,0-2.35.49l-8.55-8.54a11,11,0,0,0,0-12.12L57.72,15.49A8.55,8.55,0,1,0,62.71,0Z" style="fill:#fff"/><circle cx="37.74" cy="33.27" r="16.81" style="fill:#221f1f"/><path d="M39.53,43.87a4,4,0,0,0,1.85-2.48,4.9,4.9,0,0,1,.42,2.43,15.4,15.4,0,0,1-2.27,0" style="fill:#fff"/><path d="M45.94,32.59s.72,4-1.85,4.1-3.66-3.61-3.66-3.61.6,7.3,4.09,6.82c3.92-.54,1.42-7.31,1.42-7.31" style="fill:#fff"/><path d="M27,42.92h0c2.91-.66,5.14-4.05,5.79-5.41l.41-.86.25.92A9.57,9.57,0,0,1,33.75,40c0,.15,0,.3,0,.46a2.74,2.74,0,0,0,2.16-.63c.64-.66.83-1.91.59-3.82-.12-.92-.45-2.37-.75-3.65-.16-.66-.3-1.28-.39-1.72a6.91,6.91,0,0,1,.82-5.52,3.65,3.65,0,0,1,.35-.43,13.44,13.44,0,0,0-5.44,3.46l1.22,1.42.5-.47a8.07,8.07,0,0,1,.14,3.39,14.79,14.79,0,0,0-1.41-1.78l.34-.55-1.11-1.29-.12-.14a12.06,12.06,0,0,0-1.8,3.39l1,.88.56.5.19-.54a4.24,4.24,0,0,1,.09,3.75,6.94,6.94,0,0,0-.85-1.64l.27-.88-1.43-1.3C27.14,37.52,25.15,39,25.15,39a32.08,32.08,0,0,0,3.35-.79A9.7,9.7,0,0,1,27,42.92" style="fill:#fff"/><path d="M48.73,26.15l-3.44.14a3.55,3.55,0,0,1-.18,1.21,4.72,4.72,0,0,1,.1,2.16,5.12,5.12,0,0,0-1-1.71c-3.16-1.4-4.93,1.77-4.74,3.81.15,1.68.76,3.92,1.24,7.42.4,2.94-1.09,4.21-2.81,4.51l-.11,0h0a6.34,6.34,0,0,1-.89,0h-.13l-.4,0a59.79,59.79,0,0,0-7.41-.81,12.51,12.51,0,0,0,4-4.19A9.52,9.52,0,0,1,33,40a6.61,6.61,0,0,1,0,.76l0,.35.36,0a3.62,3.62,0,0,0,3.08-.83c.81-.83,1.06-2.23.78-4.4-.11-.95-.46-2.43-.76-3.73-.15-.65-.29-1.26-.38-1.69a6.22,6.22,0,0,1,.7-5,3.63,3.63,0,0,1,1.84-1.39h0l1.18-3.6h.36L39.38,24l.55-.09,1-3.19h.37l-.66,3.09c1-.14,2.18-.24,3.44-.33a1.47,1.47,0,0,1,.62.64l3.31-1,.12.35L45,24.66a1.18,1.18,0,0,1,.07.2l3.46-.43.06.37-3.36.67,0,.19,3.49.11Zm-10,1.54a5,5,0,0,1,3-.77c.28,0,.52-.06.22-.21a4.53,4.53,0,0,0-3.44.17A2.2,2.2,0,0,0,37.64,29a4.11,4.11,0,0,1,1.13-1.3" style="fill:#fff"/></g></g></svg>