<?xml version="1.0" standalone="no"?>
<!DOCTYPE svg PUBLIC "-//W3C//DTD SVG 20010904//EN"
 "http://www.w3.org/TR/2001/REC-SVG-20010904/DTD/svg10.dtd">
<svg version="1.0" xmlns="http://www.w3.org/2000/svg"
 width="700.000000pt" height="700.000000pt" viewBox="0 0 700.000000 700.000000"
 preserveAspectRatio="xMidYMid meet">
<metadata>
Created by potrace 1.14, written by Peter Selinger 2001-2017
</metadata>
<g transform="translate(0.000000,700.000000) scale(0.100000,-0.100000)"
fill="#000000" stroke="none">
<path d="M6007 6986 c-95 -21 -124 -30 -205 -67 -290 -132 -484 -436 -484
-759 0 -100 24 -227 57 -306 l13 -31 -367 -367 -368 -368 -69 43 c-275 169
-563 251 -879 250 -71 0 -143 -2 -160 -5 -16 -3 -51 -7 -77 -10 -107 -13 -315
-72 -418 -118 -25 -12 -56 -26 -70 -32 -21 -10 -103 -57 -215 -126 l-30 -18
-241 242 -241 241 19 60 c34 102 29 283 -10 378 -7 16 -12 31 -12 34 0 3 -17
33 -37 66 -83 136 -239 246 -393 274 -57 11 -191 7 -250 -7 -86 -20 -203 -85
-269 -150 -115 -114 -171 -242 -176 -400 -6 -176 51 -319 176 -442 74 -73 190
-137 284 -157 79 -16 241 -7 302 16 l51 20 241 -239 240 -240 -37 -52 c-408
-559 -434 -1297 -66 -1873 l36 -56 -510 -509 -510 -509 -58 36 c-476 287
-1095 30 -1239 -515 -19 -71 -25 -248 -12 -339 35 -246 214 -489 447 -606 553
-278 1205 122 1207 740 1 105 -16 205 -47 286 l-18 49 519 520 c286 286 522
520 524 520 2 0 10 -7 18 -15 67 -66 336 -218 472 -266 71 -24 223 -65 280
-74 l40 -6 0 -219 c0 -132 -4 -223 -10 -228 -6 -5 -28 -15 -50 -22 -62 -19
-182 -86 -249 -139 -98 -78 -180 -185 -236 -308 -169 -368 -42 -811 297 -1041
79 -53 104 -65 214 -103 86 -29 105 -32 229 -33 138 -1 178 3 265 28 182 51
361 187 472 358 24 36 43 70 43 75 0 4 6 20 14 34 16 31 45 116 51 151 3 12 8
44 13 69 13 66 6 210 -13 304 -10 48 -36 120 -65 180 -100 204 -268 353 -485
430 l-50 17 2 172 c1 94 2 194 2 221 1 43 4 51 21 52 11 1 58 9 104 18 210 39
438 138 629 272 l77 55 190 -191 189 -190 -14 -42 c-22 -62 -27 -87 -30 -165
-13 -271 172 -524 435 -594 70 -19 207 -21 276 -5 269 63 450 279 460 551 6
178 -48 316 -172 440 -121 121 -282 182 -452 170 -45 -3 -107 -15 -137 -25
l-54 -19 -195 194 -194 194 48 73 c107 162 205 402 236 577 3 14 7 32 9 40 10
35 19 173 19 285 0 166 -12 267 -51 415 -55 213 -165 434 -304 611 l-21 26
342 341 c188 188 347 342 354 342 7 0 27 -11 46 -25 18 -13 67 -39 109 -56
236 -98 516 -85 731 33 212 117 373 333 422 563 27 126 13 348 -29 450 -61
150 -104 219 -202 316 -113 113 -219 176 -374 220 -90 25 -286 33 -370 15z"/>
</g>
</svg>
